<?xml version="1.0" standalone="no"?>
<!DOCTYPE svg PUBLIC "-//W3C//DTD SVG 20010904//EN"
 "http://www.w3.org/TR/2001/REC-SVG-20010904/DTD/svg10.dtd">
<svg version="1.0" xmlns="http://www.w3.org/2000/svg"
 width="338.000000pt" height="338.000000pt" viewBox="0 0 338.000000 338.000000"
 preserveAspectRatio="xMidYMid meet">
<metadata>
Created by potrace 1.11, written by Peter Selinger 2001-2013
</metadata>
<g transform="translate(0.000000,338.000000) scale(0.100000,-0.100000)"
fill="#000000" stroke="none">
<path d="M1443 3360 c-359 -55 -658 -202 -921 -455 -694 -666 -694 -1765 0
-2430 334 -321 770 -489 1218 -472 338 13 659 120 920 305 781 555 952 1632
380 2394 -90 119 -251 278 -367 360 -358 256 -799 363 -1230 298z m512 -130
c421 -72 795 -316 1036 -675 389 -579 337 -1371 -124 -1892 -306 -346 -718
-533 -1177 -533 -459 0 -861 181 -1174 530 -412 459 -505 1154 -230 1716 216
442 639 763 1124 853 149 27 388 28 545 1z"/>
<path d="M1453 3095 c-546 -100 -978 -484 -1128 -1002 -56 -191 -71 -437 -40
-628 57 -356 255 -687 537 -900 95 -72 244 -163 252 -154 2 2 11 155 20 339 9
184 19 376 22 426 l7 92 -49 16 c-195 65 -317 241 -353 509 -22 161 -5 273 65
415 57 117 154 219 259 272 64 33 75 35 165 35 87 0 101 -3 160 -32 237 -117
376 -411 331 -700 -40 -255 -157 -428 -337 -494 -33 -12 -60 -23 -62 -24 -2
-2 12 -297 38 -765 6 -102 14 -188 18 -191 18 -17 206 -39 332 -39 139 0 266
16 382 49 58 17 63 20 70 52 4 19 14 192 23 384 8 193 18 369 21 393 4 35 2
43 -13 48 -130 44 -251 144 -273 225 -16 57 -7 429 15 624 8 77 22 205 30 285
22 203 17 190 70 190 l45 0 0 -475 0 -475 45 0 45 0 0 475 0 475 45 0 45 0 0
-475 0 -475 45 0 45 0 0 475 0 475 50 0 50 0 0 -475 0 -475 45 0 45 0 0 475 0
475 34 0 c39 0 32 34 71 -332 49 -467 56 -729 20 -799 -38 -73 -198 -189 -260
-189 -17 0 -18 -10 -12 -117 3 -65 11 -226 17 -358 7 -132 14 -246 16 -253 7
-23 182 106 289 213 245 244 391 564 414 903 22 348 -72 673 -274 947 -221
300 -538 494 -912 560 -108 18 -367 18 -470 0z"/>
<path d="M881 2084 c-39 -65 -63 -156 -69 -251 -4 -83 -2 -101 23 -170 15 -43
38 -97 52 -120 43 -74 167 -173 189 -151 2 3 -20 40 -49 84 -77 115 -127 270
-127 391 0 48 7 119 15 158 8 38 15 76 15 82 0 26 -29 12 -49 -23z"/>
</g>
</svg>
